<?xml version="1.0" encoding="UTF-8" standalone="no"?>
<!DOCTYPE svg PUBLIC "-//W3C//DTD SVG 1.1//EN" "http://www.w3.org/Graphics/SVG/1.1/DTD/svg11.dtd">
<svg width="100%" height="100%" viewBox="0 0 263 70" version="1.1" xmlns="http://www.w3.org/2000/svg" xmlns:xlink="http://www.w3.org/1999/xlink" xml:space="preserve" xmlns:serif="http://www.serif.com/" style="fill-rule:evenodd;clip-rule:evenodd;stroke-linejoin:round;stroke-miterlimit:1.41421;">
    <g transform="matrix(9.65734,0,0,9.65734,-1757.57,-2407.57)">
        <g transform="matrix(1.00353,0,0,1.00353,-0.641695,-0.86746)">
            <path d="M181.993,252.962C181.993,252.298 182.123,251.698 182.383,251.162C182.643,250.626 183.027,250.2 183.535,249.884C184.043,249.568 184.653,249.41 185.365,249.41C185.709,249.41 186.005,249.442 186.253,249.506C186.501,249.57 186.797,249.658 187.141,249.77L187.093,251.618L186.313,251.618L186.049,250.394C186.001,250.17 185.697,250.058 185.137,250.058C184.577,250.058 184.135,250.284 183.811,250.736C183.487,251.188 183.325,251.83 183.325,252.662C183.325,253.606 183.507,254.324 183.871,254.816C184.235,255.308 184.709,255.554 185.293,255.554C185.629,255.554 185.947,255.502 186.247,255.398C186.547,255.294 186.805,255.17 187.021,255.026L187.249,255.506C187.033,255.73 186.715,255.932 186.295,256.112C185.875,256.292 185.449,256.382 185.017,256.382C184.361,256.382 183.807,256.234 183.355,255.938C182.903,255.642 182.563,255.236 182.335,254.72C182.107,254.204 181.993,253.618 181.993,252.962Z" style="fill-rule:nonzero;"/>
        </g>
        <g transform="matrix(1.00353,0,0,1.00353,-0.641695,-0.86746)">
            <path d="M196.309,250.514L195.445,250.298L195.445,249.65L197.161,249.434L197.197,249.434L197.449,249.65L197.449,250.154L197.437,250.442C197.725,250.186 198.105,249.954 198.577,249.746C199.049,249.538 199.501,249.434 199.933,249.434C200.437,249.434 200.827,249.53 201.103,249.722C201.379,249.914 201.573,250.208 201.685,250.604C201.797,251 201.853,251.534 201.853,252.206L201.853,255.566L202.693,255.65L202.693,256.25L199.849,256.25L199.849,255.662L200.593,255.566L200.593,252.194C200.593,251.722 200.561,251.352 200.497,251.084C200.433,250.816 200.313,250.616 200.137,250.484C199.961,250.352 199.705,250.286 199.369,250.286C199.081,250.286 198.773,250.358 198.445,250.502C198.117,250.646 197.825,250.814 197.569,251.006L197.569,255.554L198.385,255.662L198.385,256.25L195.553,256.25L195.553,255.662L196.309,255.554L196.309,250.514Z" style="fill-rule:nonzero;"/>
        </g>
        <g transform="matrix(1.00353,0,0,1.00353,-0.641695,-0.86746)">
            <path d="M206.509,256.382C205.541,256.382 204.803,256.066 204.295,255.434C203.787,254.802 203.533,253.958 203.533,252.902C203.533,252.206 203.665,251.594 203.929,251.066C204.193,250.538 204.563,250.13 205.039,249.842C205.515,249.554 206.057,249.41 206.665,249.41C207.409,249.41 207.987,249.616 208.399,250.028C208.811,250.44 209.029,251.03 209.053,251.798C209.053,252.286 209.025,252.658 208.969,252.914L204.841,252.914C204.857,253.706 205.041,254.344 205.393,254.828C205.745,255.312 206.245,255.554 206.893,255.554C207.213,255.554 207.547,255.496 207.895,255.38C208.243,255.264 208.513,255.126 208.705,254.966L208.933,255.494C208.701,255.734 208.357,255.942 207.901,256.118C207.445,256.294 206.981,256.382 206.509,256.382ZM207.733,252.278C207.757,252.11 207.769,251.938 207.769,251.762C207.761,251.242 207.651,250.832 207.439,250.532C207.227,250.232 206.893,250.082 206.437,250.082C205.973,250.082 205.603,250.25 205.327,250.586C205.051,250.922 204.893,251.486 204.853,252.278L207.733,252.278Z" style="fill-rule:nonzero;"/>
        </g>
        <g transform="matrix(0.176081,0,0,0.165237,152.414,211.559)">
            <path d="M222.375,271.893C220.015,271.893 217.754,271.489 215.669,270.751C217.082,267.342 220.775,264.488 222.375,263.37C223.977,264.488 227.669,267.343 229.081,270.751C226.996,271.489 224.736,271.893 222.375,271.893ZM203.494,254.911C209.379,255.896 214.977,258.181 219.869,261.593C217.82,263.13 214.521,266.015 213.01,269.582C207.486,266.642 203.704,261.187 203.494,254.911ZM231.74,269.582C230.229,266.015 226.931,263.131 224.881,261.593C229.773,258.181 235.372,255.896 241.256,254.911C241.046,261.187 237.265,266.642 231.74,269.582ZM222.375,250.281C223.735,251.212 226.633,253.397 228.335,256.145C226.259,257.201 224.264,258.426 222.375,259.812C220.486,258.426 218.492,257.201 216.416,256.145C218.118,253.396 221.016,251.212 222.375,250.281ZM239.404,252.298C236.51,252.88 233.688,253.756 230.983,254.909C230.162,253.514 229.104,252.258 228.03,251.187C230.568,247.024 236.073,245.251 238.51,244.65C238.97,246.235 239.654,249.221 239.404,252.298ZM206.241,244.65C208.679,245.251 214.183,247.025 216.72,251.187C215.647,252.258 214.589,253.514 213.768,254.909C211.063,253.756 208.241,252.88 205.346,252.298C205.096,249.221 205.781,246.235 206.241,244.65ZM216.568,246.56C218.273,243.585 221.021,241.23 222.377,240.179C223.732,241.228 226.475,243.575 228.183,246.56C227.311,247.332 226.509,248.216 225.833,249.226C224.375,248.056 223.228,247.364 223.12,247.299C222.661,247.025 222.089,247.025 221.63,247.299C221.522,247.364 220.376,248.056 218.918,249.226C218.242,248.216 217.44,247.333 216.568,246.56ZM212.611,234.371C214.124,235.005 217.172,236.459 219.554,238.722C217.977,240.06 215.796,242.187 214.221,244.817C212.258,243.589 210.21,242.788 208.59,242.282C209.427,238.872 211.548,235.772 212.611,234.371ZM232.146,234.372C233.209,235.769 235.327,238.862 236.164,242.281C234.543,242.786 232.494,243.588 230.529,244.816C228.955,242.188 226.776,240.062 225.199,238.724C227.576,236.467 230.632,235.008 232.146,234.372ZM222.376,228.403C223.575,229.245 225.937,231.059 227.654,233.354C226.076,234.262 224.323,235.47 222.815,236.991C222.53,236.9 222.223,236.9 221.938,236.99C220.429,235.469 218.676,234.261 217.098,233.353C218.813,231.065 221.178,229.247 222.376,228.403Z" style="fill:rgb(138,107,89);fill-rule:nonzero;"/>
        </g>
    </g>
</svg>
